<?xml version="1.0" standalone="no"?>
<!DOCTYPE svg PUBLIC "-//W3C//DTD SVG 20010904//EN"
 "http://www.w3.org/TR/2001/REC-SVG-20010904/DTD/svg10.dtd">
<svg version="1.0" xmlns="http://www.w3.org/2000/svg"
 width="512.000000pt" height="512.000000pt" viewBox="0 0 512.000000 512.000000"
 preserveAspectRatio="xMidYMid meet">
<metadata>
Created by potrace 1.14, written by Peter Selinger 2001-2017
</metadata>
<g transform="translate(0.000000,512.000000) scale(0.100000,-0.100000)"
fill="#000000" stroke="none">
<path d="M1295 4953 c-495 -63 -910 -398 -1065 -862 -68 -203 -63 -96 -66
-1496 -3 -1046 -1 -1283 11 -1345 7 -41 16 -89 19 -107 15 -83 98 -281 159
-378 32 -52 127 -175 162 -210 201 -202 435 -325 710 -376 93 -17 182 -18
1335 -18 1180 0 1240 1 1341 19 402 74 741 326 923 688 43 85 102 256 111 322
4 25 11 65 15 90 5 25 8 607 7 1310 -4 1392 0 1300 -66 1499 -63 189 -166 353
-313 502 -54 55 -199 169 -214 169 -7 0 -14 4 -16 9 -4 11 -199 105 -263 126
-27 9 -88 26 -135 38 -84 21 -99 21 -1355 23 -698 0 -1283 -1 -1300 -3z m35
-1523 c19 -5 53 -26 75 -46 22 -20 77 -70 122 -111 45 -41 92 -84 105 -95 13
-11 56 -50 97 -86 41 -37 79 -71 85 -77 7 -5 36 -33 66 -60 30 -28 88 -79 129
-115 41 -36 107 -96 147 -135 64 -62 73 -75 79 -117 13 -89 4 -102 -210 -293
-43 -38 -83 -75 -89 -80 -6 -6 -53 -48 -105 -95 -52 -47 -102 -92 -111 -100
-9 -8 -54 -49 -100 -90 -46 -41 -106 -96 -134 -121 -135 -123 -161 -137 -237
-124 -81 14 -137 92 -125 175 9 65 -2 52 206 241 52 47 110 99 129 115 18 16
45 40 60 54 37 35 193 174 262 235 32 28 57 52 57 55 1 3 -58 57 -129 120 -72
63 -140 124 -152 136 -12 11 -111 100 -219 197 -206 186 -222 206 -214 277 2
19 4 40 5 47 2 21 54 75 86 89 36 16 68 17 115 4z m2569 -1443 c19 -7 48 -29
65 -50 26 -33 31 -47 31 -97 0 -50 -4 -63 -31 -97 -17 -21 -46 -43 -65 -50
-25 -9 -210 -12 -710 -12 l-677 0 -42 30 c-23 17 -48 46 -57 66 -15 38 -13
106 5 140 15 26 53 60 82 72 38 15 1355 13 1399 -2z"/>
</g>
</svg>
